<svg width="24" height="25" viewBox="0 0 24 25" fill="none" xmlns="http://www.w3.org/2000/svg">
<path fill-rule="evenodd" clip-rule="evenodd" d="M12 6.5C12.552 6.5 13 6.053 13 5.5V3.5C13 2.947 12.552 2.5 12 2.5C11.448 2.5 11 2.947 11 3.5V5.5C11 6.053 11.448 6.5 12 6.5ZM21 11.5H19C18.448 11.5 18 11.947 18 12.5C18 13.053 18.448 13.5 19 13.5H21C21.552 13.5 22 13.053 22 12.5C22 11.947 21.552 11.5 21 11.5ZM5 11.5C5.552 11.5 6 11.947 6 12.5C6 13.053 5.552 13.5 5 13.5H3C2.448 13.5 2 13.053 2 12.5C2 11.947 2.448 11.5 3 11.5H5ZM6.2207 5.5283C5.8237 5.1453 5.1907 5.1573 4.8067 5.5533C4.4227 5.9503 4.4337 6.5843 4.8307 6.9673L6.2697 8.3573C6.4647 8.5453 6.7147 8.6373 6.9647 8.6373C7.2267 8.6373 7.4877 8.5353 7.6837 8.3323C8.0677 7.9353 8.0567 7.3013 7.6597 6.9183L6.2207 5.5283ZM17.7302 8.3577C17.5352 8.5447 17.2852 8.6377 17.0352 8.6377C16.7732 8.6377 16.5122 8.5347 16.3162 8.3317C15.9322 7.9357 15.9432 7.3017 16.3402 6.9177L17.7792 5.5287C18.1782 5.1457 18.8102 5.1577 19.1932 5.5537C19.5772 5.9497 19.5662 6.5837 19.1692 6.9677L17.7302 8.3577ZM12 18.5C11.448 18.5 11 18.947 11 19.5V21.5C11 22.053 11.448 22.5 12 22.5C12.552 22.5 13 22.053 13 21.5V19.5C13 18.947 12.552 18.5 12 18.5ZM16.316 16.6676C16.7 16.2716 17.333 16.2596 17.73 16.6426L19.169 18.0326C19.566 18.4156 19.577 19.0496 19.193 19.4466C18.997 19.6496 18.736 19.7516 18.474 19.7516C18.224 19.7516 17.974 19.6596 17.779 19.4716L16.34 18.0816C15.943 17.6986 15.932 17.0646 16.316 16.6676ZM6.27 16.6426L4.831 18.0326C4.434 18.4156 4.423 19.0496 4.807 19.4466C5.003 19.6496 5.264 19.7516 5.526 19.7516C5.776 19.7516 6.026 19.6596 6.221 19.4716L7.66 18.0816C8.057 17.6986 8.068 17.0646 7.684 16.6676C7.301 16.2716 6.668 16.2596 6.27 16.6426ZM8 12.5C8 10.294 9.794 8.5 12 8.5C14.206 8.5 16 10.294 16 12.5C16 14.706 14.206 16.5 12 16.5C9.794 16.5 8 14.706 8 12.5Z" fill="#231F20"/>
<mask id="mask0_3942_460" style="mask-type:luminance" maskUnits="userSpaceOnUse" x="2" y="2" width="20" height="21">
<path fill-rule="evenodd" clip-rule="evenodd" d="M12 6.5C12.552 6.5 13 6.053 13 5.5V3.5C13 2.947 12.552 2.5 12 2.5C11.448 2.5 11 2.947 11 3.5V5.5C11 6.053 11.448 6.5 12 6.5ZM21 11.5H19C18.448 11.5 18 11.947 18 12.5C18 13.053 18.448 13.5 19 13.5H21C21.552 13.5 22 13.053 22 12.5C22 11.947 21.552 11.5 21 11.5ZM5 11.5C5.552 11.5 6 11.947 6 12.5C6 13.053 5.552 13.5 5 13.5H3C2.448 13.5 2 13.053 2 12.5C2 11.947 2.448 11.5 3 11.5H5ZM6.2207 5.5283C5.8237 5.1453 5.1907 5.1573 4.8067 5.5533C4.4227 5.9503 4.4337 6.5843 4.8307 6.9673L6.2697 8.3573C6.4647 8.5453 6.7147 8.6373 6.9647 8.6373C7.2267 8.6373 7.4877 8.5353 7.6837 8.3323C8.0677 7.9353 8.0567 7.3013 7.6597 6.9183L6.2207 5.5283ZM17.7302 8.3577C17.5352 8.5447 17.2852 8.6377 17.0352 8.6377C16.7732 8.6377 16.5122 8.5347 16.3162 8.3317C15.9322 7.9357 15.9432 7.3017 16.3402 6.9177L17.7792 5.5287C18.1782 5.1457 18.8102 5.1577 19.1932 5.5537C19.5772 5.9497 19.5662 6.5837 19.1692 6.9677L17.7302 8.3577ZM12 18.5C11.448 18.5 11 18.947 11 19.5V21.5C11 22.053 11.448 22.5 12 22.5C12.552 22.5 13 22.053 13 21.5V19.5C13 18.947 12.552 18.5 12 18.5ZM16.316 16.6676C16.7 16.2716 17.333 16.2596 17.73 16.6426L19.169 18.0326C19.566 18.4156 19.577 19.0496 19.193 19.4466C18.997 19.6496 18.736 19.7516 18.474 19.7516C18.224 19.7516 17.974 19.6596 17.779 19.4716L16.34 18.0816C15.943 17.6986 15.932 17.0646 16.316 16.6676ZM6.27 16.6426L4.831 18.0326C4.434 18.4156 4.423 19.0496 4.807 19.4466C5.003 19.6496 5.264 19.7516 5.526 19.7516C5.776 19.7516 6.026 19.6596 6.221 19.4716L7.66 18.0816C8.057 17.6986 8.068 17.0646 7.684 16.6676C7.301 16.2716 6.668 16.2596 6.27 16.6426ZM8 12.5C8 10.294 9.794 8.5 12 8.5C14.206 8.5 16 10.294 16 12.5C16 14.706 14.206 16.5 12 16.5C9.794 16.5 8 14.706 8 12.5Z" fill="white"/>
</mask>
<g mask="url(#mask0_3942_460)">
<rect y="0.5" width="24" height="24" fill="#0D1C2E"/>
</g>
</svg>
