<svg width="201" height="24" viewBox="0 0 201 24" fill="none" xmlns="http://www.w3.org/2000/svg">
<g opacity="0.6">
<path d="M41.5 6C41.5 6.24493 41.41 6.48134 41.2473 6.66437C41.0845 6.84741 40.8603 6.96434 40.617 6.993L40.5 7H39.655L38.424 19.52C38.357 20.1994 38.0397 20.8295 37.5338 21.2879C37.0279 21.7462 36.3697 22.0001 35.687 22H28.313C27.6303 22.0001 26.9721 21.7462 26.4662 21.2879C25.9603 20.8295 25.643 20.1994 25.576 19.52L24.345 7H23.5C23.2348 7 22.9804 6.89464 22.7929 6.70711C22.6054 6.51957 22.5 6.26522 22.5 6C22.5 5.73478 22.6054 5.48043 22.7929 5.29289C22.9804 5.10536 23.2348 5 23.5 5H28.5C28.5 4.54037 28.5905 4.08525 28.7664 3.66061C28.9423 3.23597 29.2001 2.85013 29.5251 2.52513C29.8501 2.20012 30.236 1.94231 30.6606 1.76642C31.0852 1.59053 31.5404 1.5 32 1.5C32.4596 1.5 32.9148 1.59053 33.3394 1.76642C33.764 1.94231 34.1499 2.20012 34.4749 2.52513C34.7999 2.85013 35.0577 3.23597 35.2336 3.66061C35.4095 4.08525 35.5 4.54037 35.5 5H40.5C40.7652 5 41.0196 5.10536 41.2071 5.29289C41.3946 5.48043 41.5 5.73478 41.5 6ZM34.25 9.25C34.0688 9.25001 33.8937 9.31564 33.7571 9.43477C33.6205 9.55389 33.5316 9.71845 33.507 9.898L33.5 10V17L33.507 17.102C33.5317 17.2815 33.6206 17.446 33.7571 17.5651C33.8937 17.6842 34.0688 17.7498 34.25 17.7498C34.4312 17.7498 34.6063 17.6842 34.7429 17.5651C34.8794 17.446 34.9683 17.2815 34.993 17.102L35 17V10L34.993 9.898C34.9684 9.71845 34.8795 9.55389 34.7429 9.43477C34.6063 9.31564 34.4312 9.25001 34.25 9.25ZM29.75 9.25C29.5688 9.25001 29.3937 9.31564 29.2571 9.43477C29.1205 9.55389 29.0316 9.71845 29.007 9.898L29 10V17L29.007 17.102C29.0317 17.2815 29.1206 17.446 29.2571 17.5651C29.3937 17.6842 29.5688 17.7498 29.75 17.7498C29.9312 17.7498 30.1063 17.6842 30.2429 17.5651C30.3794 17.446 30.4683 17.2815 30.493 17.102L30.5 17V10L30.493 9.898C30.4684 9.71845 30.3795 9.55389 30.2429 9.43477C30.1063 9.31564 29.9312 9.25001 29.75 9.25ZM32 3.5C31.6022 3.5 31.2206 3.65804 30.9393 3.93934C30.658 4.22064 30.5 4.60218 30.5 5H33.5C33.5 4.60218 33.342 4.22064 33.0607 3.93934C32.7794 3.65804 32.3978 3.5 32 3.5Z" fill="black"/>
</g>
<path opacity="0.6" d="M56.104 18L53.448 13.44H51.688V18H50.232V6.848H53.832C54.6747 6.848 55.384 6.992 55.96 7.28C56.5467 7.568 56.984 7.95733 57.272 8.448C57.56 8.93867 57.704 9.49867 57.704 10.128C57.704 10.896 57.48 11.5733 57.032 12.16C56.5947 12.7467 55.9333 13.136 55.048 13.328L57.848 18H56.104ZM51.688 12.272H53.832C54.6213 12.272 55.2133 12.08 55.608 11.696C56.0027 11.3013 56.2 10.7787 56.2 10.128C56.2 9.46667 56.0027 8.95467 55.608 8.592C55.224 8.22933 54.632 8.048 53.832 8.048H51.688V12.272ZM67.9664 13.28C67.9664 13.5573 67.9504 13.8507 67.9184 14.16H60.9104C60.9637 15.024 61.257 15.7013 61.7904 16.192C62.3344 16.672 62.9904 16.912 63.7584 16.912C64.3877 16.912 64.9104 16.768 65.3264 16.48C65.753 16.1813 66.0517 15.7867 66.2224 15.296H67.7904C67.5557 16.1387 67.0864 16.8267 66.3824 17.36C65.6784 17.8827 64.8037 18.144 63.7584 18.144C62.9264 18.144 62.1797 17.9573 61.5184 17.584C60.8677 17.2107 60.3557 16.6827 59.9824 16C59.609 15.3067 59.4224 14.5067 59.4224 13.6C59.4224 12.6933 59.6037 11.8987 59.9664 11.216C60.329 10.5333 60.8357 10.0107 61.4864 9.648C62.1477 9.27467 62.905 9.088 63.7584 9.088C64.5904 9.088 65.3264 9.26933 65.9664 9.632C66.6064 9.99467 67.097 10.496 67.4384 11.136C67.7904 11.7653 67.9664 12.48 67.9664 13.28ZM66.4624 12.976C66.4624 12.4213 66.3397 11.9467 66.0944 11.552C65.849 11.1467 65.513 10.8427 65.0864 10.64C64.6704 10.4267 64.2064 10.32 63.6944 10.32C62.9584 10.32 62.329 10.5547 61.8064 11.024C61.2944 11.4933 61.001 12.144 60.9264 12.976H66.4624ZM80.4323 9.072C81.1149 9.072 81.7229 9.216 82.2563 9.504C82.7896 9.78133 83.2109 10.2027 83.5203 10.768C83.8296 11.3333 83.9843 12.0213 83.9843 12.832V18H82.5443V13.04C82.5443 12.1653 82.3256 11.4987 81.8883 11.04C81.4616 10.5707 80.8803 10.336 80.1443 10.336C79.3869 10.336 78.7843 10.5813 78.3363 11.072C77.8883 11.552 77.6643 12.2507 77.6643 13.168V18H76.2243V13.04C76.2243 12.1653 76.0056 11.4987 75.5683 11.04C75.1416 10.5707 74.5603 10.336 73.8243 10.336C73.0669 10.336 72.4643 10.5813 72.0163 11.072C71.5683 11.552 71.3443 12.2507 71.3443 13.168V18H69.8883V9.232H71.3443V10.496C71.6323 10.0373 72.0163 9.68533 72.4963 9.44C72.9869 9.19467 73.5256 9.072 74.1123 9.072C74.8483 9.072 75.4989 9.23733 76.0643 9.568C76.6296 9.89867 77.0509 10.384 77.3283 11.024C77.5736 10.4053 77.9789 9.92533 78.5443 9.584C79.1096 9.24267 79.7389 9.072 80.4323 9.072ZM90.1966 18.144C89.3753 18.144 88.6286 17.9573 87.9566 17.584C87.2953 17.2107 86.7726 16.6827 86.3886 16C86.0153 15.3067 85.8286 14.5067 85.8286 13.6C85.8286 12.704 86.0206 11.9147 86.4046 11.232C86.7993 10.5387 87.3326 10.0107 88.0046 9.648C88.6766 9.27467 89.4286 9.088 90.2606 9.088C91.0926 9.088 91.8446 9.27467 92.5166 9.648C93.1886 10.0107 93.7166 10.5333 94.1006 11.216C94.4953 11.8987 94.6926 12.6933 94.6926 13.6C94.6926 14.5067 94.49 15.3067 94.0846 16C93.69 16.6827 93.1513 17.2107 92.4686 17.584C91.786 17.9573 91.0286 18.144 90.1966 18.144ZM90.1966 16.864C90.7193 16.864 91.21 16.7413 91.6686 16.496C92.1273 16.2507 92.4953 15.8827 92.7726 15.392C93.0606 14.9013 93.2046 14.304 93.2046 13.6C93.2046 12.896 93.066 12.2987 92.7886 11.808C92.5113 11.3173 92.1486 10.9547 91.7006 10.72C91.2526 10.4747 90.7673 10.352 90.2446 10.352C89.7113 10.352 89.2206 10.4747 88.7726 10.72C88.3353 10.9547 87.9833 11.3173 87.7166 11.808C87.45 12.2987 87.3166 12.896 87.3166 13.6C87.3166 14.3147 87.4446 14.9173 87.7006 15.408C87.9673 15.8987 88.3193 16.2667 88.7566 16.512C89.194 16.7467 89.674 16.864 90.1966 16.864ZM99.871 16.656L102.591 9.232H104.143L100.703 18H99.007L95.567 9.232H97.135L99.871 16.656ZM113.576 13.28C113.576 13.5573 113.56 13.8507 113.528 14.16H106.52C106.573 15.024 106.866 15.7013 107.4 16.192C107.944 16.672 108.6 16.912 109.368 16.912C109.997 16.912 110.52 16.768 110.936 16.48C111.362 16.1813 111.661 15.7867 111.832 15.296H113.4C113.165 16.1387 112.696 16.8267 111.992 17.36C111.288 17.8827 110.413 18.144 109.368 18.144C108.536 18.144 107.789 17.9573 107.128 17.584C106.477 17.2107 105.965 16.6827 105.592 16C105.218 15.3067 105.032 14.5067 105.032 13.6C105.032 12.6933 105.213 11.8987 105.576 11.216C105.938 10.5333 106.445 10.0107 107.096 9.648C107.757 9.27467 108.514 9.088 109.368 9.088C110.2 9.088 110.936 9.26933 111.576 9.632C112.216 9.99467 112.706 10.496 113.048 11.136C113.4 11.7653 113.576 12.48 113.576 13.28ZM112.072 12.976C112.072 12.4213 111.949 11.9467 111.704 11.552C111.458 11.1467 111.122 10.8427 110.696 10.64C110.28 10.4267 109.816 10.32 109.304 10.32C108.568 10.32 107.938 10.5547 107.416 11.024C106.904 11.4933 106.61 12.144 106.536 12.976H112.072ZM119.219 12.416C119.219 11.328 119.465 10.352 119.955 9.488C120.446 8.61333 121.113 7.93067 121.955 7.44C122.809 6.94933 123.753 6.704 124.787 6.704C126.003 6.704 127.065 6.99733 127.971 7.584C128.878 8.17067 129.539 9.00267 129.955 10.08H128.211C127.902 9.408 127.454 8.89067 126.867 8.528C126.291 8.16533 125.598 7.984 124.787 7.984C124.009 7.984 123.31 8.16533 122.691 8.528C122.073 8.89067 121.587 9.408 121.235 10.08C120.883 10.7413 120.707 11.52 120.707 12.416C120.707 13.3013 120.883 14.08 121.235 14.752C121.587 15.4133 122.073 15.9253 122.691 16.288C123.31 16.6507 124.009 16.832 124.787 16.832C125.598 16.832 126.291 16.656 126.867 16.304C127.454 15.9413 127.902 15.424 128.211 14.752H129.955C129.539 15.8187 128.878 16.6453 127.971 17.232C127.065 17.808 126.003 18.096 124.787 18.096C123.753 18.096 122.809 17.856 121.955 17.376C121.113 16.8853 120.446 16.208 119.955 15.344C119.465 14.48 119.219 13.504 119.219 12.416ZM135.947 18.144C135.125 18.144 134.379 17.9573 133.707 17.584C133.045 17.2107 132.523 16.6827 132.139 16C131.765 15.3067 131.579 14.5067 131.579 13.6C131.579 12.704 131.771 11.9147 132.155 11.232C132.549 10.5387 133.083 10.0107 133.755 9.648C134.427 9.27467 135.179 9.088 136.011 9.088C136.843 9.088 137.595 9.27467 138.267 9.648C138.939 10.0107 139.467 10.5333 139.851 11.216C140.245 11.8987 140.443 12.6933 140.443 13.6C140.443 14.5067 140.24 15.3067 139.835 16C139.44 16.6827 138.901 17.2107 138.219 17.584C137.536 17.9573 136.779 18.144 135.947 18.144ZM135.947 16.864C136.469 16.864 136.96 16.7413 137.419 16.496C137.877 16.2507 138.245 15.8827 138.523 15.392C138.811 14.9013 138.955 14.304 138.955 13.6C138.955 12.896 138.816 12.2987 138.539 11.808C138.261 11.3173 137.899 10.9547 137.451 10.72C137.003 10.4747 136.517 10.352 135.995 10.352C135.461 10.352 134.971 10.4747 134.523 10.72C134.085 10.9547 133.733 11.3173 133.467 11.808C133.2 12.2987 133.067 12.896 133.067 13.6C133.067 14.3147 133.195 14.9173 133.451 15.408C133.717 15.8987 134.069 16.2667 134.507 16.512C134.944 16.7467 135.424 16.864 135.947 16.864ZM152.901 9.072C153.584 9.072 154.192 9.216 154.725 9.504C155.258 9.78133 155.68 10.2027 155.989 10.768C156.298 11.3333 156.453 12.0213 156.453 12.832V18H155.013V13.04C155.013 12.1653 154.794 11.4987 154.357 11.04C153.93 10.5707 153.349 10.336 152.613 10.336C151.856 10.336 151.253 10.5813 150.805 11.072C150.357 11.552 150.133 12.2507 150.133 13.168V18H148.693V13.04C148.693 12.1653 148.474 11.4987 148.037 11.04C147.61 10.5707 147.029 10.336 146.293 10.336C145.536 10.336 144.933 10.5813 144.485 11.072C144.037 11.552 143.813 12.2507 143.813 13.168V18H142.357V9.232H143.813V10.496C144.101 10.0373 144.485 9.68533 144.965 9.44C145.456 9.19467 145.994 9.072 146.581 9.072C147.317 9.072 147.968 9.23733 148.533 9.568C149.098 9.89867 149.52 10.384 149.797 11.024C150.042 10.4053 150.448 9.92533 151.013 9.584C151.578 9.24267 152.208 9.072 152.901 9.072ZM169.385 9.072C170.068 9.072 170.676 9.216 171.209 9.504C171.743 9.78133 172.164 10.2027 172.473 10.768C172.783 11.3333 172.937 12.0213 172.937 12.832V18H171.497V13.04C171.497 12.1653 171.279 11.4987 170.841 11.04C170.415 10.5707 169.833 10.336 169.097 10.336C168.34 10.336 167.737 10.5813 167.289 11.072C166.841 11.552 166.617 12.2507 166.617 13.168V18H165.177V13.04C165.177 12.1653 164.959 11.4987 164.521 11.04C164.095 10.5707 163.513 10.336 162.777 10.336C162.02 10.336 161.417 10.5813 160.969 11.072C160.521 11.552 160.297 12.2507 160.297 13.168V18H158.841V9.232H160.297V10.496C160.585 10.0373 160.969 9.68533 161.449 9.44C161.94 9.19467 162.479 9.072 163.065 9.072C163.801 9.072 164.452 9.23733 165.017 9.568C165.583 9.89867 166.004 10.384 166.281 11.024C166.527 10.4053 166.932 9.92533 167.497 9.584C168.063 9.24267 168.692 9.072 169.385 9.072ZM183.326 13.28C183.326 13.5573 183.31 13.8507 183.278 14.16H176.27C176.323 15.024 176.616 15.7013 177.15 16.192C177.694 16.672 178.35 16.912 179.118 16.912C179.747 16.912 180.27 16.768 180.686 16.48C181.112 16.1813 181.411 15.7867 181.582 15.296H183.15C182.915 16.1387 182.446 16.8267 181.742 17.36C181.038 17.8827 180.163 18.144 179.118 18.144C178.286 18.144 177.539 17.9573 176.878 17.584C176.227 17.2107 175.715 16.6827 175.342 16C174.968 15.3067 174.782 14.5067 174.782 13.6C174.782 12.6933 174.963 11.8987 175.326 11.216C175.688 10.5333 176.195 10.0107 176.846 9.648C177.507 9.27467 178.264 9.088 179.118 9.088C179.95 9.088 180.686 9.26933 181.326 9.632C181.966 9.99467 182.456 10.496 182.798 11.136C183.15 11.7653 183.326 12.48 183.326 13.28ZM181.822 12.976C181.822 12.4213 181.699 11.9467 181.454 11.552C181.208 11.1467 180.872 10.8427 180.446 10.64C180.03 10.4267 179.566 10.32 179.054 10.32C178.318 10.32 177.688 10.5547 177.166 11.024C176.654 11.4933 176.36 12.144 176.286 12.976H181.822ZM189.52 9.072C190.586 9.072 191.45 9.39733 192.112 10.048C192.773 10.688 193.104 11.616 193.104 12.832V18H191.664V13.04C191.664 12.1653 191.445 11.4987 191.008 11.04C190.57 10.5707 189.973 10.336 189.216 10.336C188.448 10.336 187.834 10.576 187.376 11.056C186.928 11.536 186.704 12.2347 186.704 13.152V18H185.248V9.232H186.704V10.48C186.992 10.032 187.381 9.68533 187.872 9.44C188.373 9.19467 188.922 9.072 189.52 9.072ZM197.258 10.432V15.6C197.258 16.0267 197.349 16.3307 197.53 16.512C197.711 16.6827 198.026 16.768 198.474 16.768H199.546V18H198.234C197.423 18 196.815 17.8133 196.41 17.44C196.005 17.0667 195.802 16.4533 195.802 15.6V10.432H194.666V9.232H195.802V7.024H197.258V9.232H199.546V10.432H197.258Z" fill="black"/>
</svg>
